Coordinates
version=1
nRows=24
nColumns=34
inDegrees=no

Units are S.I. units (second, meters, Newtons, ...)
If the header above contains a line with 'inDegrees', this indicates whether rotational values are in degrees (yes) or radians (no).

endheader
time	pelvis_tilt	pelvis_list	pelvis_rotation	pelvis_tx	pelvis_ty	pelvis_tz	hip_flexion_r	hip_adduction_r	hip_rotation_r	knee_angle_r	ankle_angle_r	subtalar_angle_r	mtp_angle_r	hip_flexion_l	hip_adduction_l	hip_rotation_l	knee_angle_l	ankle_angle_l	subtalar_angle_l	mtp_angle_l	lumbar_extension	lumbar_bending	lumbar_rotation	arm_flex_r	arm_add_r	arm_rot_r	elbow_flex_r	pro_sup_r	arm_flex_l	arm_add_l	arm_rot_l	elbow_flex_l	pro_sup_l
0.8	-0.0205616	-0.0425023	-0.114111	0.734736	1.0267	-0.273592	-0.0961063	-0.057799	-0.199358	0.735891	-0.108994	-0.0923483	-0.0444667	0.405229	-0.256032	-0.395824	0.541087	0.188857	0.390642	-0.0403079	-0.220764	-0.412399	-0.00945984	-0.0934144	-0.192575	0.189613	0.897192	1.89282	-0.0431394	-0.366339	-0.318051	0.655635	1.88187
0.81	-0.0243037	-0.0370298	-0.125379	0.74504	1.02812	-0.274747	-0.0647364	-0.0765392	-0.199964	0.788012	-0.139453	-0.119038	-0.044492	0.393585	-0.250631	-0.405391	0.539562	0.198818	0.386489	-0.0403161	-0.21257	-0.421432	-0.0106665	-0.0958524	-0.195697	0.189972	0.895696	1.89329	-0.0408241	-0.369987	-0.314651	0.661068	1.88017
0.82	-0.0277177	-0.0319146	-0.136091	0.755125	1.02955	-0.275863	-0.033323	-0.0938497	-0.1997	0.838415	-0.164377	-0.148303	-0.0445173	0.381695	-0.245386	-0.415359	0.537084	0.207934	0.383923	-0.0403242	-0.205064	-0.429624	-0.012413	-0.0981058	-0.197676	0.187008	0.893913	1.89365	-0.0380967	-0.374312	-0.309569	0.666851	1.87692
0.83	-0.0307312	-0.0273716	-0.1461	0.764999	1.03098	-0.276923	-0.00221124	-0.109297	-0.198742	0.886399	-0.183144	-0.179554	-0.0445426	0.369517	-0.240523	-0.425619	0.533761	0.216311	0.383163	-0.0403324	-0.198423	-0.436851	-0.0147839	-0.100215	-0.198469	0.180959	0.891812	1.89385	-0.0348252	-0.379362	-0.303023	0.672743	1.87237
0.84	-0.0333162	-0.0235694	-0.155305	0.774676	1.03245	-0.277918	0.0283405	-0.122517	-0.19723	0.931365	-0.195583	-0.211967	-0.0445679	0.357003	-0.236221	-0.436066	0.529645	0.224016	0.384323	-0.0403406	-0.192765	-0.443017	-0.0178266	-0.10222	-0.198108	0.172251	0.889392	1.89385	-0.0308969	-0.385158	-0.295254	0.6785	1.86697
0.85	-0.0355011	-0.0206109	-0.163645	0.784171	1.03395	-0.27884	0.0581574	-0.133248	-0.195256	0.972824	-0.20198	-0.24449	-0.0445933	0.344118	-0.232582	-0.446582	0.524755	0.231072	0.387385	-0.0403487	-0.188144	-0.448071	-0.0215509	-0.104156	-0.196701	0.161466	0.886681	1.89364	-0.0262254	-0.391703	-0.286497	0.683898	1.8613
0.86	-0.0373429	-0.0185298	-0.171084	0.793494	1.03552	-0.279687	0.0871439	-0.141353	-0.19288	1.0104	-0.203035	-0.275898	-0.0446186	0.330864	-0.229618	-0.457019	0.519094	0.237467	0.392179	-0.0403569	-0.184541	-0.452024	-0.0259364	-0.106059	-0.19441	0.149283	0.883728	1.89322	-0.0207557	-0.398976	-0.276962	0.688741	1.85599
0.87	-0.0389123	-0.0172914	-0.177603	0.802662	1.03715	-0.280463	0.11527	-0.146829	-0.190145	1.04381	-0.199732	-0.304876	-0.0446439	0.31729	-0.227244	-0.467188	0.512657	0.243164	0.398382	-0.040365	-0.181872	-0.454948	-0.0309437	-0.107963	-0.191439	0.136422	0.880601	1.89261	-0.0144657	-0.406939	-0.26681	0.692898	1.85161
0.88	-0.0402906	-0.0167971	-0.183197	0.811693	1.03883	-0.28117	0.142544	-0.149798	-0.187093	1.07289	-0.193192	-0.330139	-0.0446692	0.303489	-0.225288	-0.476857	0.505446	0.248118	0.405547	-0.0403732	-0.18001	-0.456967	-0.0365201	-0.109901	-0.188009	0.123583	0.877381	1.89187	-0.00736375	-0.415529	-0.256162	0.696321	1.84853
0.89	-0.0415566	-0.0169025	-0.187873	0.820604	1.04054	-0.281817	0.168989	-0.150487	-0.183786	1.09756	-0.1845	-0.350561	-0.0446945	0.289575	-0.223522	-0.485759	0.497475	0.252291	0.413134	-0.0403813	-0.178819	-0.458234	-0.0426031	-0.111902	-0.184348	0.111389	0.874162	1.89107	0.000516621	-0.42466	-0.245113	0.699056	1.84698
0.9	-0.0427736	-0.0174432	-0.191644	0.829413	1.04226	-0.282413	0.194618	-0.14919	-0.180307	1.1178	-0.174576	-0.36529	-0.0447198	0.275666	-0.221695	-0.493611	0.488775	0.25567	0.420562	-0.0403894	-0.178173	-0.458912	-0.0491193	-0.113989	-0.180665	0.100355	0.871045	1.89027	0.00912567	-0.434219	-0.233762	0.701242	1.84704
0.91	-0.0439834	-0.0182579	-0.194543	0.838136	1.04399	-0.282969	0.219432	-0.146229	-0.176755	1.13366	-0.164086	-0.373849	-0.0447451	0.261865	-0.219573	-0.500144	0.479399	0.258276	0.427271	-0.0403976	-0.177965	-0.459151	-0.0559755	-0.116181	-0.177149	0.0908537	0.868135	1.88951	0.0184083	-0.44407	-0.222217	0.703088	1.84862
0.92	-0.0452067	-0.019207	-0.196629	0.846786	1.04568	-0.283494	0.24342	-0.141922	-0.17323	1.14525	-0.153433	-0.376189	-0.0447704	0.24825	-0.216975	-0.505144	0.469425	0.260167	0.432777	-0.0404057	-0.178111	-0.459078	-0.0630486	-0.118494	-0.173946	0.083105	0.865537	1.88886	0.0283147	-0.454057	-0.210606	0.704847	1.85155
0.93	-0.0464475	-0.0201868	-0.197992	0.855374	1.04733	-0.283994	0.266562	-0.136545	-0.169817	1.1527	-0.142794	-0.372701	-0.0447957	0.234869	-0.213794	-0.508484	0.458956	0.261438	0.436723	-0.0404139	-0.178546	-0.458784	-0.0701823	-0.120938	-0.171165	0.0771723	0.863335	1.88841	0.0388073	-0.464016	-0.199068	0.706775	1.85557
0.94	-0.0476976	-0.0211377	-0.19875	0.86391	1.0489	-0.284472	0.288836	-0.130309	-0.166581	1.15615	-0.13221	-0.364184	-0.044821	0.22174	-0.210016	-0.51015	0.448122	0.262214	0.438918	-0.040422	-0.179215	-0.458318	-0.0771928	-0.12352	-0.168872	0.0729867	0.861591	1.88823	0.0498617	-0.473786	-0.187742	0.709099	1.86039
0.95	-0.0489433	-0.0220439	-0.199044	0.872402	1.05038	-0.284922	0.310217	-0.123354	-0.163557	1.15576	-0.121677	-0.35177	-0.0448463	0.208855	-0.205719	-0.510254	0.437073	0.262644	0.439351	-0.0404302	-0.180077	-0.457688	-0.0838815	-0.126241	-0.167094	0.0703801	0.86033	1.88841	0.0614632	-0.483216	-0.17674	0.711995	1.86567
0.96	-0.0501696	-0.0229247	-0.199025	0.880851	1.05176	-0.285341	0.330675	-0.11575	-0.160753	1.15166	-0.111232	-0.336815	-0.0448716	0.196185	-0.201055	-0.50903	0.42597	0.262893	0.438188	-0.0404383	-0.181094	-0.456874	-0.0900538	-0.12909	-0.165825	0.0691242	0.859538	1.88896	0.0735998	-0.492182	-0.166137	0.715574	1.87106
0.97	-0.0513617	-0.0238198	-0.198835	0.88926	1.05301	-0.285722	0.35018	-0.107524	-0.158156	1.14399	-0.100998	-0.320768	-0.0448969	0.183692	-0.196214	-0.50681	0.414976	0.263128	0.435745	-0.0404464	-0.182242	-0.455835	-0.0955415	-0.132048	-0.165037	0.068971	0.85916	1.88982	0.0862533	-0.500589	-0.155959	0.719885	1.87625
0.98	-0.0525045	-0.024769	-0.198594	0.897629	1.05412	-0.286058	0.368697	-0.098687	-0.155735	1.13284	-0.0911928	-0.30504	-0.0449221	0.171332	-0.191391	-0.503988	0.404231	0.263511	0.432442	-0.0404546	-0.183508	-0.454534	-0.100225	-0.135078	-0.164685	0.0696863	0.859104	1.89086	0.0993897	-0.508376	-0.146186	0.724928	1.88095
0.99	-0.0535801	-0.0257914	-0.198386	0.905961	1.0551	-0.286347	0.386185	-0.0892749	-0.153448	1.1183	-0.0820969	-0.29087	-0.0449474	0.15906	-0.186734	-0.500964	0.393842	0.264187	0.428728	-0.0404627	-0.1849	-0.452954	-0.104048	-0.13813	-0.164714	0.0710712	0.859247	1.89192	0.112952	-0.515516	-0.136778	0.730672	1.88502
1	-0.0545656	-0.0268702	-0.198254	0.91426	1.05592	-0.286586	0.402601	-0.0793721	-0.151255	1.10046	-0.0740049	-0.279234	-0.0449727	0.146829	-0.182314	-0.498098	0.383862	0.265275	0.425025	-0.0404708	-0.186445	-0.451114	-0.10703	-0.141136	-0.165065	0.0729742	0.859447	1.89287	0.126856	-0.522007	-0.127689	0.737078	1.88846
1.01	-0.0554304	-0.0279467	-0.198194	0.922531	1.05657	-0.286783	0.417897	-0.0691287	-0.149116	1.07939	-0.0671683	-0.270778	-0.0449979	0.134595	-0.178109	-0.495658	0.37429	0.266859	0.421673	-0.0404789	-0.188193	-0.44907	-0.10926	-0.144016	-0.165683	0.0752941	0.859553	1.89364	0.140993	-0.527873	-0.118882	0.744113	1.89133
1.02	-0.0561364	-0.028922	-0.198164	0.930781	1.05707	-0.286948	0.432021	-0.0587621	-0.14701	1.05518	-0.0617491	-0.265803	-0.0450232	0.122315	-0.174003	-0.493792	0.365065	0.268986	0.418886	-0.0404871	-0.190214	-0.446912	-0.110892	-0.146683	-0.166511	0.0779742	0.859419	1.89419	0.155232	-0.533147	-0.110339	0.751762	1.89376
1.03	-0.056642	-0.0296646	-0.198084	0.939019	1.05739	-0.287097	0.44492	-0.0485473	-0.144933	1.02794	-0.0577903	-0.264269	-0.0450485	0.109949	-0.169797	-0.4925	0.356079	0.271659	0.416731	-0.0404952	-0.192587	-0.444754	-0.112127	-0.149048	-0.167503	0.0809915	0.858917	1.89452	0.169433	-0.537867	-0.102059	0.760025	1.89582
